<?xml version="1.0" encoding="iso-8859-1"?>
<!-- Generator: Adobe Illustrator 19.0.0, SVG Export Plug-In . SVG Version: 6.00 Build 0)  -->
<svg version="1.1" id="Layer_1" xmlns="http://www.w3.org/2000/svg" xmlns:xlink="http://www.w3.org/1999/xlink" x="0px" y="0px"
	 viewBox="0 0 469.333 469.333" style="enable-background:new 0 0 469.333 469.333;" xml:space="preserve">
<g>
	<g>
		<g>
			<path d="M451.125,222.708L250.292,21.875C236.396,7.979,217.167,0,197.5,0H42.667C19.146,0,0,19.135,0,42.667V197.49
				c0,19.938,7.771,38.688,21.875,52.802l200.833,200.833c11.75,11.74,27.375,18.208,43.958,18.208s32.208-6.469,43.958-18.208
				l140.5-140.5c11.75-11.729,18.208-27.344,18.208-43.958S462.875,234.437,451.125,222.708z M436.042,295.542l-140.5,140.5
				c-15.458,15.417-42.292,15.417-57.75,0L36.958,235.208c-10.083-10.083-15.625-23.479-15.625-37.719V42.667
				c0-11.76,9.563-21.333,21.333-21.333H197.5c14.042,0,27.792,5.698,37.708,15.625l200.833,200.833
				C443.75,245.5,448,255.75,448,266.667C448,277.583,443.75,287.833,436.042,295.542z"/>
			<path d="M85.333,42.667c-23.521,0-42.667,19.135-42.667,42.667S61.812,128,85.333,128C108.854,128,128,108.865,128,85.333
				S108.854,42.667,85.333,42.667z M85.333,106.667C73.562,106.667,64,97.094,64,85.333C64,73.573,73.562,64,85.333,64
				c11.771,0,21.333,9.573,21.333,21.333C106.667,97.094,97.104,106.667,85.333,106.667z"/>
			<path d="M328.445,313.372c13.686-20.695,11.431-48.913-6.779-67.122c-20.792-20.792-54.625-20.792-75.417,0
				c-12.083,12.094-33.167,12.094-45.25,0c-12.479-12.479-12.479-32.781,0-45.26l30.167-30.167c4.167-4.167,4.167-10.917,0-15.083
				c-4.167-4.167-10.917-4.167-15.083,0l-22.625,22.625l-7.542-7.542c-4.167-4.167-10.917-4.167-15.083,0
				c-4.167,4.167-4.167,10.917,0,15.083l8.305,8.305c-13.686,20.697-11.431,48.913,6.779,67.122
				c20.125,20.146,55.25,20.167,75.417,0c12.083-12.083,33.167-12.083,45.25,0c12.479,12.479,12.479,32.781,0,45.26l-30.167,30.167
				c-4.167,4.167-4.167,10.917,0,15.083c2.083,2.083,4.813,3.125,7.542,3.125c2.729,0,5.458-1.042,7.542-3.125l22.625-22.625
				l7.542,7.542c2.083,2.083,4.813,3.125,7.542,3.125s5.458-1.042,7.542-3.125c4.167-4.167,4.167-10.917,0-15.083L328.445,313.372z"
				/>
		</g>
	</g>
</g>
<g>
</g>
<g>
</g>
<g>
</g>
<g>
</g>
<g>
</g>
<g>
</g>
<g>
</g>
<g>
</g>
<g>
</g>
<g>
</g>
<g>
</g>
<g>
</g>
<g>
</g>
<g>
</g>
<g>
</g>
</svg>
